<svg width="139" height="25" viewBox="0 0 139 25" fill="none" xmlns="http://www.w3.org/2000/svg">
<path d="M11.6002 3.66261C11.8624 2.6696 13.2718 2.6696 13.534 3.66261L14.159 6.03009C14.3374 6.70586 15.1363 6.99484 15.7057 6.58958L17.6886 5.1783C18.525 4.58304 19.6081 5.48376 19.1753 6.41464L18.1393 8.64268C17.8453 9.27509 18.2726 10.0067 18.9679 10.0612L21.3803 10.2505C22.4026 10.3307 22.6562 11.7143 21.7288 12.1518L19.508 13.1997C18.8794 13.4963 18.7376 14.328 19.2326 14.8161L20.9507 16.5105C21.6799 17.2297 20.9851 18.4499 19.9945 18.1897L17.63 17.5687C16.9597 17.3927 16.3178 17.9354 16.38 18.6256L16.5967 21.0329C16.6885 22.052 15.3716 22.5349 14.7829 21.6979L13.385 19.7108C12.9867 19.1447 12.1475 19.1447 11.7492 19.7108L10.3513 21.6979C9.76258 22.5349 8.44572 22.052 8.53748 21.0329L8.75422 18.6256C8.81637 17.9354 8.17456 17.3927 7.50424 17.5687L5.13969 18.1897C4.14913 18.4499 3.45431 17.2297 4.1835 16.5105L5.90166 14.8161C6.39658 14.328 6.25485 13.4963 5.6262 13.1997L3.40541 12.1518C2.478 11.7143 2.73159 10.3307 3.75391 10.2505L6.16635 10.0612C6.86164 10.0067 7.28895 9.27509 6.99491 8.64268L5.95894 6.41464C5.52612 5.48376 6.60917 4.58304 7.44556 5.1783L9.42853 6.58958C9.99795 6.99484 10.7969 6.70586 10.9752 6.03009L11.6002 3.66261Z" fill="url(#paint0_linear_2020_15416)"/>
<path d="M122.564 7.78437H124.484V9.87237C125.156 8.28837 126.308 7.49637 127.916 7.49637C129.572 7.49637 130.772 8.33637 131.324 9.89637C132.116 8.28837 133.34 7.49637 134.972 7.49637C137.276 7.49637 138.62 9.12837 138.62 11.9124V19.7844H136.58V12.0804C136.58 10.2084 135.812 9.24837 134.3 9.24837C132.596 9.24837 131.612 10.4964 131.612 12.6804V19.7844H129.572V11.9844C129.572 10.2324 128.756 9.24837 127.316 9.24837C125.636 9.24837 124.604 10.5924 124.604 12.7764V19.7844H122.564V7.78437Z" fill="#F9FAFB"/>
<path d="M112.597 20.0724C109.573 20.0724 108.493 18.2484 108.493 15.4404V7.78437H110.533V15.2004C110.533 17.2164 111.397 18.3204 112.981 18.3204C114.901 18.3204 116.197 16.6884 116.197 14.2404V7.78437H118.237V19.7844H116.317V17.5284C115.765 18.9924 114.277 20.0724 112.597 20.0724Z" fill="#F9FAFB"/>
<path d="M94.931 24.4644V7.78437H96.851V10.0164C97.619 8.36037 99.011 7.49637 100.763 7.49637C103.667 7.49637 105.611 9.99237 105.611 13.7844C105.611 17.6244 103.547 20.0724 100.643 20.0724C98.795 20.0724 97.499 19.0644 96.971 17.8884V24.4644H94.931ZM96.923 14.0484C96.923 16.6404 98.171 18.2724 100.163 18.2724C102.203 18.2724 103.451 16.5924 103.451 13.7844C103.451 10.9524 102.251 9.29637 100.235 9.29637C98.219 9.29637 96.923 10.8804 96.923 13.4724V14.0484Z" fill="#F9FAFB"/>
<path d="M86.9642 20.0724C84.1322 20.0724 82.2122 18.7524 81.8042 16.3764L83.8682 16.0164C84.1562 17.5284 85.2842 18.3924 87.0362 18.3924C88.6442 18.3924 89.5322 17.6004 89.5322 16.5684C89.5322 15.5124 88.8842 15.0804 87.8042 14.8884L85.4522 14.4564C83.4122 14.0724 82.2602 12.9204 82.2602 11.0964C82.2602 9.03237 83.9882 7.49637 86.8202 7.49637C89.5082 7.49637 91.3322 8.72037 91.5722 10.7364L89.5562 11.1924C89.2922 9.99237 88.3562 9.15237 86.7242 9.15237C85.1882 9.15237 84.2522 9.82437 84.2522 11.0004C84.2522 12.0084 84.9242 12.4884 86.1002 12.7044L88.4282 13.1364C90.5882 13.5444 91.5482 14.6484 91.5482 16.4004C91.5482 18.5604 89.8922 20.0724 86.9642 20.0724Z" fill="#F9FAFB"/>
<path d="M76.5327 19.7844V7.78437H78.5727V19.7844H76.5327ZM76.3887 5.55237V2.98437H78.7167V5.55237H76.3887Z" fill="#F9FAFB"/>
<path d="M67.7087 20.0724C64.3247 20.0724 62.1167 17.6964 62.1167 13.7844C62.1167 9.87237 64.3247 7.49637 67.7087 7.49637C71.0927 7.49637 73.3007 9.87237 73.3007 13.7844C73.3007 17.6964 71.0927 20.0724 67.7087 20.0724ZM64.2767 13.7844C64.2767 16.7604 65.5487 18.2964 67.7087 18.2964C69.8687 18.2964 71.1407 16.7604 71.1407 13.7844C71.1407 10.8084 69.8687 9.27237 67.7087 9.27237C65.5487 9.27237 64.2767 10.8084 64.2767 13.7844Z" fill="#F9FAFB"/>
<path d="M54.6673 24.7524C50.4433 24.7524 49.2673 23.1684 49.2673 21.4644C49.2673 20.3364 49.9393 19.3764 51.2113 18.9684C50.2033 18.5124 49.8193 17.7444 49.8193 16.8804C49.8193 15.6804 50.5153 14.8644 51.5233 14.4804C50.7553 13.7364 50.3473 12.7284 50.3473 11.5524C50.3473 9.22437 52.0033 7.49637 54.7873 7.49637C55.6993 7.49637 56.4673 7.68837 57.1393 8.00037C57.4993 6.77637 58.3873 5.81637 59.9953 5.81637C60.2593 5.81637 60.5233 5.84037 60.7873 5.91237V7.68837C60.5473 7.64037 60.2593 7.59237 59.9233 7.59237C59.0113 7.59237 58.4113 7.95237 58.1233 8.72037C58.8433 9.44037 59.2273 10.4244 59.2273 11.5524C59.2273 13.8804 57.5713 15.6564 54.7873 15.6564C53.8993 15.6564 53.1313 15.4644 52.4833 15.1524C51.9793 15.3684 51.6193 15.7764 51.6193 16.3284C51.6193 17.0004 52.1233 17.5524 53.6113 17.5524H56.5393C59.2513 17.5524 60.6193 18.7764 60.6193 20.9364C60.6193 23.1924 58.8433 24.7524 54.6673 24.7524ZM51.2593 21.1044C51.2593 22.5924 52.7473 23.0724 54.9073 23.0724C57.8353 23.0724 58.5793 22.1604 58.5793 21.0804C58.5793 19.9524 57.7393 19.3524 56.0833 19.3524H53.5393C53.1793 19.3524 52.8433 19.3284 52.5313 19.3044C51.6673 19.6884 51.2593 20.3844 51.2593 21.1044ZM52.2673 11.5524C52.2673 13.0164 53.2513 14.0964 54.7873 14.0964C56.3233 14.0964 57.3073 13.0404 57.3073 11.5764C57.3073 10.1124 56.3233 9.05637 54.7873 9.05637C53.2513 9.05637 52.2673 10.0884 52.2673 11.5524Z" fill="#F9FAFB"/>
<path d="M41.9978 20.0724C38.6138 20.0724 36.4058 17.6964 36.4058 13.7844C36.4058 9.87237 38.6138 7.49637 41.9978 7.49637C45.3818 7.49637 47.5898 9.87237 47.5898 13.7844C47.5898 17.6964 45.3818 20.0724 41.9978 20.0724ZM38.5658 13.7844C38.5658 16.7604 39.8378 18.2964 41.9978 18.2964C44.1578 18.2964 45.4298 16.7604 45.4298 13.7844C45.4298 10.8084 44.1578 9.27237 41.9978 9.27237C39.8378 9.27237 38.5658 10.8084 38.5658 13.7844Z" fill="#F9FAFB"/>
<path d="M33.1742 2.38437V19.7844H31.1342V2.38437H33.1742Z" fill="#F9FAFB"/>
<defs>
<linearGradient id="paint0_linear_2020_15416" x1="1.73183" y1="2.73755" x2="26.5364" y2="7.56957" gradientUnits="userSpaceOnUse">
<stop stop-color="#6139E8"/>
<stop offset="0.522345" stop-color="#9074ED"/>
<stop offset="1" stop-color="#FF99FA"/>
</linearGradient>
</defs>
</svg>
